<svg xmlns="http://www.w3.org/2000/svg" xmlns:xlink="http://www.w3.org/1999/xlink" width="2924" height="1424" viewBox="0 0 2924 1424">
  <defs>
    <clipPath id="clip-path">
      <rect id="Rect치ngulo_9194" data-name="Rect치ngulo 9194" width="2924" height="1424" transform="translate(77.999 187)" fill="#011f36"/>
    </clipPath>
    <linearGradient id="linear-gradient" x1="0.714" y1="0.217" x2="0.162" y2="0.834" gradientUnits="objectBoundingBox">
      <stop offset="0" stop-color="#8c8c8c"/>
      <stop offset="0.01" stop-color="#888"/>
      <stop offset="0.17" stop-color="#5f5f5f"/>
      <stop offset="0.33" stop-color="#3c3c3c"/>
      <stop offset="0.49" stop-color="#222"/>
      <stop offset="0.65" stop-color="#0f0f0f"/>
      <stop offset="0.82" stop-color="#030303"/>
      <stop offset="1"/>
    </linearGradient>
    <linearGradient id="linear-gradient-2" x1="0.069" y1="0.5" x2="1.069" y2="0.5" gradientUnits="objectBoundingBox">
      <stop offset="0" stop-color="#333"/>
      <stop offset="0.17" stop-color="#49494b"/>
      <stop offset="0.54" stop-color="#838388"/>
      <stop offset="1" stop-color="#d5d5e0"/>
    </linearGradient>
    <linearGradient id="linear-gradient-3" x1="0.603" y1="-0.003" x2="0.547" y2="0.326" gradientUnits="objectBoundingBox">
      <stop offset="0" stop-color="#333"/>
      <stop offset="0.15" stop-color="#49494b"/>
      <stop offset="0.46" stop-color="#848488"/>
      <stop offset="0.91" stop-color="#e1e1eb"/>
      <stop offset="1" stop-color="#f4f4ff"/>
    </linearGradient>
    <linearGradient id="linear-gradient-4" x1="0.567" y1="0.036" x2="0.515" y2="0.471" xlink:href="#linear-gradient-3"/>
    <linearGradient id="linear-gradient-5" x1="1.421" y1="-11.515" x2="1.01" y2="-6.158" xlink:href="#linear-gradient-3"/>
    <linearGradient id="linear-gradient-6" x1="0.608" y1="-0.024" x2="0.531" y2="0.441" xlink:href="#linear-gradient-3"/>
    <linearGradient id="linear-gradient-7" x1="0.504" y1="0.289" x2="-2.846" y2="247.395" xlink:href="#linear-gradient-3"/>
  </defs>
  <g id="Grupo_26233" data-name="Grupo 26233" transform="translate(-77.999 -187)">
    <rect id="Rect치ngulo_9192" data-name="Rect치ngulo 9192" width="2924" height="1424" transform="translate(77.999 187)" fill="#011f36"/>
    <g id="road" clip-path="url(#clip-path)">
      <g id="Recurso_1" data-name="Recurso 1" transform="translate(630.251 1044.5)" opacity="0.06" style="mix-blend-mode: luminosity;isolation: isolate">
        <g id="Capa_2" data-name="Capa 2" transform="translate(0 0)">
          <g id="Layer_1" data-name="Layer 1">
            <g id="Grupo_26196" data-name="Grupo 26196">
              <g id="Grupo_26193" data-name="Grupo 26193" transform="translate(0 1.699)">
                <path id="Trazado_8803" data-name="Trazado 8803" d="M2234.72,10.985c-285.568,10.232-526.484,23.72-717.2,40.643-225.033,20-391.42,45.777-476.835,78.206-108.185,41.139-92.635,95.7,120.958,167.281,137.619,46.06,361.208,100.652,698.869,165.44,198.487,38.059,438.515,80.083,727.3,126.5C2915.6,641.732,3309.9,700.715,3783.074,766.777c-192.933,40.714-403.638,85.216-634.67,134-254.579,53.742-536.481,113.22-850.15,179.46-285.679-67.231-534.815-128.514-752.3-184.523-197.154-50.769-369.65-97.536-520.264-140.729C760.675,679.012,559.189,613.056,408.353,555.454,163.771,461.918,44.479,387.146,10.49,326.819c-27.324-48.821,0-89.783,66.866-124.266,56.647-29.208,142.95-54.38,251.357-76.047C507.43,90.855,755.233,63.134,1049.242,42.1c245.471-17.56,535.037-31.332,863.59-41.634q155.446,5.1,322,10.515Z" transform="translate(0.005 -0.47)" fill="url(#linear-gradient)"/>
                <path id="Trazado_8804" data-name="Trazado 8804" d="M2234.72,9.6c-285.568,8.886-526.484,20.6-717.2,35.3-225.033,17.348-391.42,39.758-476.835,67.9C932.5,148.527,948.055,195.9,1161.647,258.065c137.619,39.97,361.208,87.411,698.869,143.667,198.487,33.031,438.515,69.532,727.3,109.857C2915.6,557.331,3309.9,608.524,3783.074,665.913c-192.933,35.368-403.638,73.993-634.67,116.336-254.579,46.662-536.481,98.315-850.15,155.846-285.679-58.38-534.815-111.592-752.3-160.236-197.154-44.077-369.65-84.72-520.264-122.213C760.675,589.654,559.189,532.371,408.353,482.381,163.771,401.2,44.479,336.272,10.49,283.839c-27.324-42.378,0-77.958,66.866-107.91C134,150.581,220.307,128.7,328.713,109.9,507.43,78.924,755.233,54.85,1049.242,36.582,1294.713,21.393,1584.279,9.427,1912.832.47q155.446,4.408,322,9.134Z" transform="translate(0.005 -0.47)" fill="url(#linear-gradient-2)"/>
              </g>
              <g id="Grupo_26195" data-name="Grupo 26195" transform="translate(146.628)">
                <path id="Trazado_8805" data-name="Trazado 8805" d="M3094.728,1000.456c-12.329,2.938-24.658,5.912-37.1,8.886-362.652-64.576-680.431-123.381-959-177.088-251.579-48.467-472.947-93.111-667.658-134.285C1090.311,625.923,826.4,563.4,624.361,508.914,450.533,462,320.022,420.37,225.389,383.268,142.2,350.626,85.77,321.17,52.226,294.547-4.754,249.3,3.132,211.278,59.779,179.308c47.65-26.836,130.622-50.025,241.916-69.993,181.16-32.465,440.181-56.787,743.631-74.7,253.246-14.94,551.92-26.34,884.8-34.625,2.11.071,4.332.142,6.442.177C1593.359,8.7,1294.13,20.453,1043.55,35.57,742.876,53.732,493.407,77.984,320.578,109.387,215.17,128.54,134.975,150.95,88.214,177.007c-55.314,30.907-65.089,67.868-11,112.123C144.75,344.253,314.691,413.077,635.8,499.674c199.82,53.849,462.617,115.875,804.832,187.674,195.932,41.1,419.521,85.747,674.655,134.391,283.013,53.955,607.345,113.256,979.217,178.61Z" transform="translate(-13.196 0.01)" fill="url(#linear-gradient-3)"/>
                <path id="Trazado_8806" data-name="Trazado 8806" d="M1527.222,2.032c-312.114,8.5-576.134,20.074-787.061,34.872C489.692,54.465,299.869,77.548,195.35,106.968c-134.287,37.917-136.4,89.323,83.86,158.112C348.186,286.605,439.487,310.113,557,335.816c130.955,28.641,295.342,60.221,499.16,95.094,230.7,39.475,514.489,83.588,861.258,132.9,192.933,27.438,406.3,56.61,642.111,87.694,255.134,33.6,537.591,69.532,850.372,108.016-7.886,1.841-15.661,3.717-23.658,5.558C3080.351,727.13,2803,691.55,2551.423,658.2c-232.808-30.872-444.179-59.938-636-87.3-345.325-49.317-629.893-93.571-862.7-133.365C846.9,402.374,679.737,370.405,545.784,341.339c-120.07-26.092-214.259-50.025-285.568-71.975-227.7-70.1-230.7-122.956-87.192-162.5C283.541,76.486,482.917,53.3,737.273,35.949c214.481-14.622,479.39-25.88,782.951-34.129l7,.212Z" transform="translate(614.968 4.659)" fill="url(#linear-gradient-4)"/>
                <g id="Grupo_26194" data-name="Grupo 26194" transform="translate(364.917 3.257)">
                  <path id="Trazado_8807" data-name="Trazado 8807" d="M717.511,284.237c-9.33,2.337-18.771,4.673-28.1,7.045-161.833-22.977-237.918-33.952-388.2-55.9,10.108-2.053,20.1-4.107,30.212-6.16,149.5,21.6,225.255,32.394,386.2,55.017Z" transform="translate(2532.92 579.076)" fill="url(#linear-gradient-5)"/>
                  <path id="Trazado_8808" data-name="Trazado 8808" d="M1624.948,1.747c-10.219.283-20.437.6-30.656.885-2.333-.071-4.665-.142-7-.177,10.219-.283,20.437-.6,30.767-.885C1620.394,1.641,1622.726,1.712,1624.948,1.747Zm635.114,709.06c-11,1.558-22.1,3.08-33.211,4.638C2078.235,691.689,1937.506,668.606,1808,646.8q16.827-1.912,33.655-3.788c129.511,21.561,270.129,44.36,418.411,67.8ZM1524.871,4.756c-23.1.743-46.206,1.487-68.865,2.266-2.443-.071-5-.142-7.442-.177,22.659-.779,45.873-1.522,69.087-2.266C1520.1,4.65,1522.428,4.721,1524.871,4.756Zm-30.434,578.882c-11.107,1.027-22.326,2.089-33.544,3.115-102.409-18.233-198.931-36.005-287.567-52.786,11-.85,22.1-1.7,33.1-2.549,88.747,16.64,185.491,34.2,288.011,52.255ZM1387.919,9.394c-22.659.814-45.429,1.664-67.643,2.549-2.666-.071-5.22-.142-7.886-.177,22.326-.85,45.1-1.735,67.865-2.549C1382.809,9.288,1385.364,9.359,1387.919,9.394ZM967.509,485.146c-10.774.708-21.437,1.416-32.211,2.124C865.211,473,799.012,459.018,738.477,445.706q15.661-.9,31.322-1.735c60.979,13.205,127.4,27.048,197.821,41.21ZM1253.3,14.634c-22.215.92-44.54,1.876-66.2,2.868-2.777-.071-5.553-.142-8.33-.177,21.77-.991,44.207-1.947,66.533-2.868,2.666.071,5.443.142,8.108.177ZM606.523,407.081c-10.108.5-20.215.956-30.323,1.452-47.65-11.435-92.191-22.658-132.732-33.385,9.774-.389,19.438-.814,29.212-1.2,40.875,10.656,85.748,21.773,133.843,33.138ZM1121.566,20.546c-21.659,1.027-43.429,2.124-64.755,3.222-3-.071-5.887-.106-8.886-.177,21.326-1.1,43.207-2.2,64.978-3.222C1115.791,20.44,1118.679,20.511,1121.566,20.546ZM363.94,344.027c-9.33.319-18.66.673-28.1.991-31.434-9.346-60.312-18.516-86.081-27.261,9-.283,17.994-.531,26.991-.814C302.85,325.653,332.173,334.752,363.94,344.027Zm629-316.825c-21.215,1.168-42.43,2.407-62.978,3.647-3.11-.071-6.331-.106-9.441-.177,20.66-1.239,41.986-2.443,63.312-3.647,3.11.071,6.109.106,9.219.177ZM207.994,292.338c-8.553.212-17.216.46-25.88.673-19.327-7.718-36.654-15.294-51.649-22.587,8.219-.177,16.55-.354,24.769-.566,15.328,7.222,32.989,14.763,52.76,22.446ZM867.988,34.708c-20.548,1.345-41.1,2.726-60.979,4.107-3.332-.071-6.775-.106-10.108-.177,19.993-1.381,40.653-2.761,61.312-4.107C861.434,34.6,864.766,34.637,867.988,34.708ZM116.47,249.359c-7.886.142-15.772.283-23.769.46a185.065,185.065,0,0,1-25.658-18.905c7.553-.106,15.217-.248,22.77-.354a208.543,208.543,0,0,0,26.657,18.8ZM747.252,43.169c-19.771,1.487-39.542,3.045-58.646,4.638-3.665-.071-7.22-.106-10.885-.177,19.216-1.558,39.1-3.116,58.979-4.638,3.443.071,7,.106,10.441.177ZM73.707,213.247c-7.22.106-14.551.177-21.77.283a37.473,37.473,0,0,1-5.887-16l20.882-.212A41.193,41.193,0,0,0,73.707,213.247ZM631.4,52.728c-18.883,1.7-37.765,3.47-55.87,5.24-3.888-.035-7.775-.106-11.663-.142,18.216-1.77,37.209-3.54,56.2-5.24,3.777.071,7.442.106,11.218.177ZM68.264,182.623c-6.664.035-13.329.106-19.993.177a44.743,44.743,0,0,1,9.33-13.63l19.216-.106a41.127,41.127,0,0,0-8.553,13.595ZM521.33,63.526c-17.883,1.912-35.543,3.93-52.537,5.948-4.11-.035-8.33-.106-12.44-.142,17.105-2.018,34.877-4,52.982-5.948,4,.035,8,.106,12,.142ZM91.7,156.46c-6.109,0-12.218.035-18.438.071a179.971,179.971,0,0,1,21.326-11.719h17.661A171.109,171.109,0,0,0,91.7,156.5ZM418.254,75.776c-16.55,2.2-32.877,4.461-48.539,6.727l-13.44-.106c15.772-2.3,32.211-4.567,48.983-6.762,4.332.035,8.664.071,12.884.142ZM137.8,133.908H120.8c9.33-3.434,19.66-6.833,30.656-10.125h16.328c-10.774,3.293-20.882,6.691-29.99,10.09ZM323.62,89.689c-15.106,2.478-29.768,5.063-43.54,7.683-4.776,0-9.664-.071-14.44-.071,14-2.62,28.879-5.2,44.1-7.683,4.665,0,9.33.071,14,.106ZM201.774,114.365c-5.22,0-10.441,0-15.661-.035,10.663-2.655,21.992-5.311,33.766-7.86,1.444-.319,2.888-.637,4.443-.956,5,0,10,.035,15.106.071l-4.332.956c-11.552,2.549-22.77,5.169-33.211,7.824Z" transform="translate(-46.05 0.767)" fill="url(#linear-gradient-6)"/>
                  <path id="Trazado_8809" data-name="Trazado 8809" d="M242.684,1.122c-17.994.46-26.769.673-44.429,1.133l-6.664-.212c17.661-.46,26.435-.673,44.54-1.133,2.221.071,4.443.142,6.553.212Z" transform="translate(1424.961 -0.91)" fill="url(#linear-gradient-7)"/>
                </g>
              </g>
            </g>
          </g>
        </g>
      </g>
    </g>
  </g>
</svg>
